<?xml version="1.0" encoding="UTF-8" standalone="no"?>
<!DOCTYPE svg PUBLIC "-//W3C//DTD SVG 1.1//EN" "http://www.w3.org/Graphics/SVG/1.1/DTD/svg11.dtd">
<svg width="100%" height="100%" viewBox="0 0 500 50" version="1.1" xmlns="http://www.w3.org/2000/svg" xmlns:xlink="http://www.w3.org/1999/xlink" xml:space="preserve" xmlns:serif="http://www.serif.com/" style="fill-rule:evenodd;clip-rule:evenodd;stroke-linecap:round;stroke-linejoin:round;stroke-miterlimit:1.5;">
    <g id="Layer1" transform="matrix(1,0,0,1,-5,-3)">
        <g transform="matrix(0.998004,0,0,1.04167,0.00998004,-0.125)">
            <path d="M5,3L5,51L495,51L506,40L506,3L5,3Z" style="fill-opacity:0.2;"/>
            <path d="M5,3L5,51L495,51L506,40L506,3L5,3ZM6.002,3.96L6.002,50.04L494.572,50.04L504.998,39.614L504.998,3.96L6.002,3.96Z" style="fill:rgb(255,120,108);"/>
        </g>
        <path d="M24,22L34,32C34,32 35,34 34,35L32,37C32,37 31,38 30,37L25,32L24,32L19,27L18,28L18,27L19,26L18,25L17,26L16,25L18,25L17,24L14,24L14,22L16,22L16,20L20,16L23,16L23,19L24,20L24,22Z" style="fill:rgb(255,215,72);stroke:rgb(255,215,72);stroke-width:1px;"/>
        <path d="M23,23L26,26L25,27L22,24L23,23Z"/>
        <path d="M21,24L25,28L24,29L21,26L21,24Z"/>
        <path d="M22,20L19,23L21,23L22,22L22,20Z"/>
        <rect x="17" y="23" width="1" height="1"/>
        <path d="M19,21L22,18L23,19L22,18L19,21Z" style="fill:none;stroke:black;stroke-width:0.65px;stroke-linecap:butt;stroke-linejoin:bevel;"/>
        <path d="M29,34C29,34 31,31 32,32L33,33C33,33 34,34 33,35L31.291,36.505L29,34Z"/>
        <path d="M29,29L26,32C26,32 25,30 26,29C27,28 29,29 29,29Z"/>
    </g>
</svg>
